# xmcd
#
# Track frame offsets: 
#        150
#        19961
#        35660
#        54423
#        67837
#        82942
#        101705
#        116827
#        133872
#        148989
#        168696
#
# Disc length: 2488 seconds
#
# Revision: 1
# Processed by: cddbd v1.5.2PL0 Copyright (c) Steve Scherf et al.
# Submitted via: ExactAudioCopy v0.99pb5
#
DISCID=a009b60b
DTITLE=Engelbert Humperdink - Calling CD1
DYEAR=2014
DGENRE=Pop
TTITLE0=Something About the Way You Look Tonight (with Elton John)
TTITLE1=Since I Lost My Baby (with Cliff Richard)
TTITLE2=Never Never Never (with Olivia Newton-John)
TTITLE3=Spanish Eyes (with Il Divo)
TTITLE4=Make You Feel My Love (with Willie Nelson)
TTITLE5=I Need You Now (with Lulu)
TTITLE6=Spinning Wheel (with Gene Simmons)
TTITLE7=Real Love (with Shelby Lynn)
TTITLE8=Release Me (with Wynonna Judd)
TTITLE9=She Believes in Me (with Kenny Rogers)
TTITLE10=Better (with Louise Dorsey)
EXTD=c2014 Conehead UK - Universal\nDuets\nCD 1 of 2
EXTT0=
EXTT1=
EXTT2=
EXTT3=
EXTT4=
EXTT5=
EXTT6=
EXTT7=
EXTT8=
EXTT9=
EXTT10=
PLAYORDER=
